<?xml version="1.0" encoding="UTF-8" standalone="no"?>
<svg
   width="12"
   height="12"
   version="1.1"
   viewBox="0 0 12 12"
   id="svg2"
   sodipodi:docname="minus_over.svg"
   inkscape:version="1.4 (e7c3feb100, 2024-10-09)"
   xmlns:inkscape="http://www.inkscape.org/namespaces/inkscape"
   xmlns:sodipodi="http://sodipodi.sourceforge.net/DTD/sodipodi-0.dtd"
   xmlns="http://www.w3.org/2000/svg"
   xmlns:svg="http://www.w3.org/2000/svg">
  <defs
     id="defs2" />
  <sodipodi:namedview
     id="namedview2"
     pagecolor="#ffffff"
     bordercolor="#000000"
     borderopacity="0.25"
     inkscape:showpageshadow="2"
     inkscape:pageopacity="0.0"
     inkscape:pagecheckerboard="0"
     inkscape:deskcolor="#d1d1d1"
     inkscape:zoom="66.833333"
     inkscape:cx="6"
     inkscape:cy="5.9925187"
     inkscape:window-width="1920"
     inkscape:window-height="1008"
     inkscape:window-x="0"
     inkscape:window-y="0"
     inkscape:window-maximized="1"
     inkscape:current-layer="svg2" />
  <rect
     width="12"
     height="12"
     x="0"
     y="0"
     style="fill:#272727"
     id="rect1" />
  <path
     style="opacity:1;fill:#ff5454;fill-opacity:1"
     d="M 2.4,0 C 1.0704,0 0,1.0704 0,2.4 V 9.6 C 0,10.9296 1.0704,12 2.4,12 H 9.6 C 10.9296,12 12,10.9296 12,9.6 V 2.4 C 12,1.0704 10.9296,0 9.6,0 Z"
     id="path1" />
  <path
     style="fill:#dfdfdf"
     d="M 3,3 H 4.4140625 L 6,4.5859375 7.5859375,3 H 9 V 4.4140625 L 7.4140625,6 9,7.5859375 V 9 H 7.5859375 L 6,7.4140625 4.4140625,9 H 3 V 7.5859375 L 4.5859375,6 3,4.4140625 Z"
     id="path2" />
</svg>
